<?xml version="1.0" encoding="UTF-8" standalone="no"?>
<svg width="205px" height="92px" viewBox="0 0 205 92" version="1.1" xmlns="http://www.w3.org/2000/svg" xmlns:xlink="http://www.w3.org/1999/xlink" xmlns:sketch="http://www.bohemiancoding.com/sketch/ns">
    <!-- Generator: Sketch 3.5.2 (25235) - http://www.bohemiancoding.com/sketch -->
    <title>Group 2</title>
    <desc>Created with Sketch.</desc>
    <defs></defs>
    <g id="SOCIALCAR-IOS8-UI-KIT" stroke="none" stroke-width="1" fill="none" fill-rule="evenodd" sketch:type="MSPage">
        <g id="Стартовый-экран" sketch:type="MSArtboardGroup" transform="translate(-265.000000, -294.000000)" fill="#FFFFFF">
            <g id="bg" sketch:type="MSLayerGroup" transform="translate(-97.000000, 0.000000)">
                <g id="Group" sketch:type="MSShapeGroup">
                    <g id="Group-2" transform="translate(362.000000, 294.000000)">
                        <g id="Group-3">
                            <path d="M204.423906,74.8302041 C202.616547,80.5529796 197.522906,78.9444898 193.214396,80.1082449 C194.240509,74.0876735 193.847943,68.4922449 191.673283,63.1319184 C189.457811,57.677551 185.901396,53.2654694 181.075943,49.9289796 C176.295189,46.6238367 170.98,45.0075102 165.194509,44.984 C158.155528,44.9526531 151.870585,47.1900408 146.576774,51.8352653 C138.490302,58.9294694 135.332283,68.0200816 136.659623,78.7857959 L68.7262642,78.7857959 C70.7746038,59.2057143 57.2155283,46.8315102 43.897434,45.1799184 C36.8914906,44.312 30.2586792,45.6716735 24.3954528,49.7389388 C14.7931321,56.3942857 10.8013962,65.8669388 11.4796415,77.5475918 C9.73835849,77.2909388 8.30413208,76.9147755 6.86407547,76.8971429 C3.52337736,76.8579592 1.57220755,75.2142041 0.775415094,72.0246531 L0.775415094,66.8112653 C1.36232075,66.1059592 1.81124528,65.1400816 2.55945283,64.7482449 C3.84792453,64.0723265 4.07530189,63.1515102 4.05586792,61.8427755 C3.99562264,57.8362449 4.03449057,53.8277551 4.03449057,49.8212245 L4.03449057,46.0321633 C6.93403774,46.0321633 9.51486792,46.0537143 12.0956981,46.0262857 C14.4977358,45.9988571 15.9572264,44.6685714 15.9028113,42.6251429 C15.852283,40.6894694 14.4472075,39.490449 12.0898679,39.459102 C9.45850943,39.4238367 6.82520755,39.4512653 4.22688679,39.4512653 C3.48645283,34.0380408 4.51256604,32.3178776 9.23501887,30.6702041 C11.2989057,29.9492245 13.3375283,29.1557551 15.3878113,28.3936327 C14.5443774,27.8039184 13.8369811,27.6530612 13.1276415,27.5061224 C11.0171132,27.0711837 9.85301887,25.7271837 10.094,23.9972245 C10.3544151,22.1262041 11.9130189,21.0878367 14.0876792,21.3954286 C17.4283774,21.8675918 20.7554717,22.4533878 24.1039434,22.829551 C25.0542642,22.9373061 26.2358491,22.7590204 27.0248679,22.2555102 C32.8997547,18.5173878 38.6755283,14.6166531 44.5445849,10.8628571 C50.4175283,7.10514286 56.3448868,3.40816327 63.3994151,2.27771429 C74.6905472,0.471346939 86.0419245,-0.192816327 97.4496604,0.767183673 C104.906472,1.39412245 112.330245,2.35804082 119.324528,5.28114286 C131.23366,10.2594286 141.856264,17.336 151.773415,25.570449 C152.838396,26.4540408 154.227925,27.1260408 155.572755,27.4512653 C162.699189,29.1831837 169.922792,30.5428571 176.990925,32.4765714 C184.090151,34.4200816 190.837623,37.3764898 197.161434,41.24 C198.869679,42.2842449 200.249491,43.5204898 200.296132,45.9400816 C199.592623,45.8675918 198.949358,45.8382041 198.321642,45.7284898 C196.691132,45.442449 195.078113,45.0506122 193.441774,44.835102 C191.611094,44.5921633 190.044717,45.7186939 189.689075,47.3742041 C189.323717,49.0845714 190.239057,50.626449 192.040585,51.2435918 C192.600283,51.4355918 193.196906,51.5237551 193.779925,51.6354286 C196.092566,52.0821224 198.409094,52.5170612 200.719792,52.9578776 C200.960774,56.9526531 201.157057,60.749551 201.450509,64.5386122 C201.501038,65.187102 201.889717,65.859102 202.268679,66.4194286 C202.925547,67.3931429 203.697075,68.2845714 204.420019,69.2112653 C204.423906,71.0881633 204.423906,72.9591837 204.423906,74.8302041 L204.423906,74.8302041 Z M81.4885472,10.2829388 C82.0054906,17.4653061 82.5379811,24.8690612 83.0646415,32.2042449 C93.4384906,35.4506122 135.376981,34.6257959 143.220528,31.0659592 C125.529792,15.6530612 105.444792,7.55967347 81.4885472,10.2829388 L81.4885472,10.2829388 Z M76.8710377,32.0083265 C76.3560377,24.8710204 75.8585283,17.9511837 75.3610189,11.0254694 C64.7753396,12.0168163 54.4092642,20.3159184 48.9988491,29.6749388 C58.2494151,30.4507755 67.3756038,31.212898 76.8710377,32.0083265 L76.8710377,32.0083265 Z M90.4767547,45.9753469 C92.2646792,45.8558367 93.4773585,44.5666939 93.5356604,42.8955102 C93.5997925,41.1048163 92.4318113,39.5942857 90.5855849,39.5100408 C87.7443396,39.3787755 84.8894906,39.3983673 82.0463019,39.4963265 C80.2855849,39.555102 79.0981698,40.9539592 79.0884528,42.6466939 C79.0748491,44.3531429 80.1884151,45.7578776 81.9374717,45.9342041 C83.3794717,46.0811429 84.8467358,45.965551 86.304283,45.965551 L86.304283,45.9929796 C87.6957547,45.9929796 89.0911132,46.0674286 90.4767547,45.9753469 L90.4767547,45.9753469 Z" id="Shape"></path>
                            <path d="M41.5485788,55.3579385 C51.0304763,56.1056548 58.8316016,64.9314387 57.7449548,75.368739 C56.8563498,83.8957778 48.1321775,91.6375437 39.5337186,91.2824638 C28.9358985,90.8437353 21.2690973,81.7396917 21.8804437,72.4956647 C22.5417312,61.9798371 30.9593692,54.5231594 41.5485788,55.3579385 L41.5485788,55.3579385 Z M39.9521896,80.510569 C44.0404614,80.5225188 47.0816948,77.330214 47.0644738,73.0385272 C47.050697,69.1104559 43.864807,65.9181511 39.9280802,65.8857159 C35.9534671,65.8532807 32.6246425,69.1224057 32.6246425,73.0573055 C32.6229204,77.4155697 35.6520991,80.4986192 39.9521896,80.510569 L39.9521896,80.510569 Z" id="Shape"></path>
                            <path d="M182.717174,73.2880457 C182.650093,83.1364226 174.617568,91.2202986 164.751495,91.3160467 C155.074625,91.4117948 146.832257,83.2082337 146.718735,73.3393394 C146.601773,63.3234033 155.270708,55.0377724 164.594973,55.338695 C173.754115,54.8343077 182.785975,63.1421658 182.717174,73.2880457 L182.717174,73.2880457 Z M164.708494,65.9513469 C161.015597,65.9479274 157.205738,69.0819681 157.474062,73.7189122 C157.689065,77.4137633 160.747273,80.5478041 164.536492,80.5307062 C168.860639,80.5118986 171.913686,77.536868 171.901646,73.3478883 C171.891326,69.075129 168.855479,65.9547665 164.708494,65.9513469 L164.708494,65.9513469 Z" id="Shape"></path>
                        </g>
                    </g>
                </g>
            </g>
        </g>
    </g>
</svg>