<?xml version="1.0" encoding="utf-8"?>
<!-- Generator: Adobe Illustrator 16.0.4, SVG Export Plug-In . SVG Version: 6.00 Build 0)  -->
<!DOCTYPE svg PUBLIC "-//W3C//DTD SVG 1.1//EN" "http://www.w3.org/Graphics/SVG/1.1/DTD/svg11.dtd">
<svg version="1.1" id="Layer_1" xmlns="http://www.w3.org/2000/svg" xmlns:xlink="http://www.w3.org/1999/xlink" x="0px" y="0px"
	 width="52.8px" height="35.4px" viewBox="0 0 52.8 35.4" style="enable-background:new 0 0 52.8 35.4;" xml:space="preserve">
<style type="text/css">
<![CDATA[
	.st0{fill:#FFFFFF;}
]]>
</style>
<path class="st0" d="M49.9,4.6c0,2-1.6,3.6-3.7,3.6H5.4c-2,0-3.7-1.6-3.7-3.6l0,0c0-2,1.6-3.6,3.7-3.6h40.9
	C48.3,1,49.9,2.6,49.9,4.6L49.9,4.6z"/>
<path class="st0" d="M36.3,17.3c0,1.3-1.2,2.4-2.6,2.4H4.2c-1.5,0-2.6-1.1-2.6-2.4l0,0c0-1.3,1.2-2.4,2.6-2.4h29.5
	C35.1,14.9,36.3,16,36.3,17.3L36.3,17.3z"/>
<path class="st0" d="M26.9,28.7c0,1.3-0.9,2.4-1.9,2.4H3.8c-1.1,0-1.9-1.1-1.9-2.4l0,0c0-1.3,0.9-2.4,1.9-2.4H25
	C26.1,26.3,26.9,27.4,26.9,28.7L26.9,28.7z"/>
<path class="st0" d="M38.5,28.5c0,2.5-2.1,4.5-4.7,4.5c-2.6,0-4.7-2-4.7-4.5s2.1-4.5,4.7-4.5C36.4,23.9,38.5,26,38.5,28.5z"/>
</svg>
